<svg width="284" height="284" viewBox="0 0 284 284" fill="none" xmlns="http://www.w3.org/2000/svg">
<g clip-path="url(#clip0)">
<g filter="url(#filter0_d)">
<path d="M74.6641 197H66.4641V231H92.5141V223.4H74.6641V197ZM116.549 197H108.349V231H116.549V197ZM167.369 197H159.119V217.75L141.919 197H133.669V231H141.919V210.2L159.119 231H167.369V197ZM207.701 218.75C206.051 221.75 202.951 223.9 198.751 223.9C192.801 223.9 188.651 219.15 188.651 213.75C188.651 208.15 192.801 203.8 198.751 203.8C203.051 203.8 206.201 205.85 207.801 208.95L214.751 204.9C211.701 199.8 206.001 196.4 198.751 196.4C188.101 196.4 180.351 204.3 180.351 213.75C180.351 223.8 188.101 231.6 198.751 231.6C205.951 231.6 211.601 227.85 214.651 222.75L207.701 218.75Z" fill="white"/>
</g>
<g filter="url(#filter1_d)">
<path d="M166.46 132.314C166.497 130.169 166.179 128.034 165.518 125.994C165.329 125.425 165.101 124.869 164.836 124.331C164.639 124.272 164.442 124.204 164.241 124.149L164.411 123.537C163.878 122.616 163.232 121.765 162.487 121.005C161.36 121.35 160.23 121.671 159.097 121.969C144.444 125.869 128.989 125.535 114.517 121.005C113.774 121.765 113.129 122.616 112.597 123.537L112.767 124.149C112.565 124.204 112.372 124.272 112.171 124.331C111.907 124.869 111.679 125.425 111.489 125.994C110.829 128.034 110.51 130.169 110.547 132.314C110.547 136.999 111.824 142.268 114.142 147.518L114.599 148.335L114.528 148.375C116.309 152.193 118.507 155.801 121.08 159.135C126.921 166.727 133.926 171.826 138.502 171.826C139.277 171.814 140.046 171.695 140.788 171.471C145.223 170.187 150.989 165.546 155.928 159.135C158.5 155.801 160.696 152.192 162.475 148.375L162.408 148.335L162.866 147.518C165.183 142.268 166.46 136.999 166.46 132.314ZM138.502 152.996C136.57 152.995 134.682 152.421 133.076 151.345C131.471 150.269 130.219 148.74 129.481 146.951C128.742 145.162 128.549 143.195 128.926 141.296C129.304 139.398 130.234 137.654 131.601 136.285C132.967 134.917 134.707 133.985 136.602 133.608C138.496 133.23 140.46 133.424 142.245 134.165C144.029 134.906 145.554 136.161 146.628 137.77C147.701 139.38 148.273 141.272 148.273 143.208C148.27 145.804 147.24 148.292 145.408 150.127C143.576 151.962 141.092 152.994 138.502 152.996Z" fill="#E5D1E6"/>
<path d="M163.406 133.609C163.45 131.343 163.092 129.087 162.349 126.946C162.18 126.487 161.991 126.045 161.782 125.615C161.585 125.551 161.388 125.488 161.183 125.433L161.356 124.821C160.745 123.761 159.985 122.797 159.097 121.957C144.444 125.857 128.989 125.523 114.517 120.993C114.123 120.878 113.764 120.76 113.385 120.637C111.819 121.738 110.508 123.165 109.542 124.821L109.7 125.385V125.433C109.499 125.488 109.306 125.551 109.101 125.615C108.013 127.838 107.481 130.485 107.481 133.609C107.481 138.294 108.758 143.564 111.076 148.813L111.529 149.631L111.462 149.67C113.243 153.488 115.44 157.097 118.013 160.43C123.855 168.018 130.859 173.122 135.435 173.122C136.984 173.122 138.809 172.537 140.776 171.471C144.619 169.385 148.995 165.451 152.862 160.43C155.433 157.097 157.629 153.488 159.409 149.67L159.342 149.631L159.799 148.813C162.129 143.564 163.406 138.294 163.406 133.609Z" fill="#B972AF"/>
<path d="M104.406 128.308C98.0009 133.183 95.1314 140.099 94.2524 142.643C92.3052 148.268 92.8018 151.764 93.2118 152.427C95.4664 154.154 99.0731 151.886 104.733 148.055C105.545 147.51 106.373 146.953 107.209 146.404C105.344 141.454 104.237 136.359 104.237 131.472C104.235 130.415 104.292 129.359 104.406 128.308V128.308Z" fill="#A5489B"/>
<path d="M169.795 146.404C170.631 146.953 171.459 147.51 172.271 148.055C177.931 151.886 181.538 154.154 183.792 152.427C184.186 151.764 184.699 148.268 182.752 142.643C181.873 140.099 179.003 133.183 172.598 128.308C172.712 129.358 172.769 130.413 172.767 131.468C172.767 136.359 171.66 141.454 169.795 146.404Z" fill="#A5489B"/>
<path d="M138.502 139.345C137.74 139.345 136.994 139.571 136.36 139.996C135.726 140.42 135.232 141.024 134.94 141.73C134.649 142.436 134.572 143.212 134.721 143.962C134.87 144.711 135.237 145.399 135.776 145.94C136.315 146.48 137.002 146.848 137.75 146.997C138.498 147.146 139.273 147.069 139.977 146.777C140.682 146.485 141.284 145.99 141.707 145.354C142.131 144.719 142.357 143.972 142.357 143.208C142.356 142.184 141.949 141.202 141.227 140.478C140.504 139.753 139.524 139.346 138.502 139.345V139.345Z" fill="#E5D1E6"/>
<path d="M89.2622 83.6967V93.1965C89.264 94.5001 89.654 95.7735 90.3822 96.8536C91.1103 97.9338 92.1436 98.7716 93.3497 99.2599V77.6373C92.1436 78.1244 91.1102 78.9614 90.3819 80.041C89.6536 81.1206 89.2637 82.3936 89.2622 83.6967V83.6967Z" fill="#A5489B"/>
<path d="M164.809 57.3815C163.859 57.3104 162.905 57.2591 161.951 57.1998L159.744 64.0492C157.674 70.4917 152.597 74.6551 146.815 74.6551H129.684C123.74 74.6551 120.638 70.1599 118.73 63.429V56.4177C117.812 56.477 112.964 57.3144 112.029 57.3815C104.237 57.9582 98.1271 64.6141 98.1271 72.5299V105.643C98.1156 108.706 99.0298 111.7 100.749 114.232C102.469 116.764 104.913 118.715 107.761 119.828C128.1 127.866 148.727 127.866 169.062 119.828C171.912 118.717 174.359 116.767 176.081 114.235C177.803 111.703 178.718 108.707 178.707 105.643V72.5299C178.707 64.6141 172.606 57.9582 164.809 57.3815Z" fill="#E5D1E6"/>
<path d="M161.829 55.284C160.875 55.2129 159.921 55.1616 158.967 55.0984L156.764 61.9478C154.694 68.3942 149.618 72.5576 143.831 72.5576H126.704C120.76 72.5576 117.639 68.0624 115.75 61.3316V54.3163C114.832 54.3795 109.984 55.2169 109.05 55.284C101.253 55.8607 95.1471 62.5126 95.1471 70.4325V103.542C95.1348 106.608 96.0503 109.605 97.773 112.139C99.4957 114.673 101.945 116.624 104.796 117.734C125.136 125.773 145.759 125.773 166.098 117.734C168.946 116.622 171.391 114.67 173.111 112.137C174.831 109.605 175.744 106.609 175.731 103.546V70.4325C175.731 62.5126 169.641 55.8607 161.829 55.284Z" fill="#B972AF"/>
<path d="M129.759 69.5674H146.886C150.524 69.5674 153.784 66.7747 155.187 62.4573L156.996 56.9036C150.847 56.5928 144.683 56.4335 138.502 56.4256C132.277 56.4256 126.062 56.5876 119.858 56.9115L121.312 61.9873C122.613 66.518 126.011 69.5674 129.759 69.5674Z" fill="#E5D1E6"/>
<path d="M183.654 77.6373V99.2599C184.86 98.7716 185.894 97.9338 186.622 96.8536C187.35 95.7735 187.74 94.5001 187.742 93.1965V83.6967C187.74 82.3936 187.35 81.1206 186.622 80.041C185.894 78.9614 184.86 78.1244 183.654 77.6373Z" fill="#A5489B"/>
<path d="M138.502 133.42C136.57 133.421 134.682 133.995 133.076 135.071C131.471 136.147 130.219 137.676 129.481 139.465C128.742 141.254 128.549 143.222 128.927 145.12C129.304 147.019 130.234 148.762 131.601 150.131C132.967 151.499 134.707 152.431 136.602 152.808C138.496 153.186 140.46 152.992 142.245 152.251C144.029 151.51 145.554 150.255 146.628 148.646C147.701 147.036 148.273 145.144 148.273 143.208C148.27 140.612 147.24 138.124 145.408 136.289C143.576 134.454 141.092 133.422 138.502 133.42V133.42ZM138.502 147.071C137.74 147.07 136.995 146.843 136.361 146.418C135.728 145.993 135.234 145.39 134.943 144.684C134.652 143.978 134.576 143.201 134.725 142.452C134.875 141.703 135.242 141.015 135.781 140.475C136.321 139.935 137.008 139.568 137.755 139.419C138.503 139.27 139.278 139.347 139.982 139.639C140.686 139.932 141.288 140.427 141.711 141.062C142.135 141.697 142.361 142.444 142.361 143.208C142.36 144.233 141.953 145.216 141.229 145.94C140.506 146.664 139.525 147.071 138.502 147.071V147.071Z" fill="#5C2467"/>
<path d="M184.048 72.2376C184.001 67.1356 182.045 62.237 178.567 58.5105C175.089 54.784 170.343 52.5007 165.266 52.1122C157.501 51.5473 149.448 51.2274 141.332 51.1642V48.7941C143.66 48.1116 145.664 46.6108 146.977 44.5671C148.29 42.5233 148.823 40.0737 148.479 37.6677C148.135 35.2617 146.937 33.0607 145.104 31.4686C143.271 29.8765 140.927 29 138.502 29C136.077 29 133.732 29.8765 131.9 31.4686C130.067 33.0607 128.869 35.2617 128.525 37.6677C128.181 40.0737 128.714 42.5233 130.027 44.5671C131.34 46.6108 133.344 48.1116 135.672 48.7941V51.1642C127.556 51.2274 119.511 51.5592 111.738 52.1122C106.661 52.5007 101.915 54.784 98.4367 58.5105C94.9589 62.237 93.003 67.1356 92.9556 72.2376C90.4062 72.8809 88.1428 74.3555 86.5215 76.4293C84.9002 78.5031 84.0131 81.0583 84 83.6928V93.1926C84.0131 95.827 84.9002 98.3823 86.5215 100.456C88.1428 102.53 90.4062 104.004 92.9556 104.648C92.9556 112.718 96.9761 119.042 102.96 122.553C88.6118 131.792 84.067 152.131 89.6839 156.67C95.6832 161.544 102.766 155.998 109.44 151.535C116.535 165.988 129.357 178 138.502 178C147.647 178 160.485 165.98 167.568 151.535C174.289 156.026 181.321 161.52 187.324 156.67C192.905 152.155 188.447 131.82 174.044 122.549C175.477 121.711 176.801 120.699 177.986 119.535C181.833 115.775 184.044 110.747 184.044 104.648C186.594 104.004 188.857 102.53 190.479 100.456C192.1 98.3823 192.987 95.827 193 93.1926V83.6967C192.988 81.0621 192.102 78.5064 190.481 76.4318C188.861 74.3573 186.598 72.8818 184.048 72.2376ZM92.9556 98.6437C91.9594 98.127 91.1245 97.3453 90.5425 96.3845C89.9606 95.4236 89.6539 94.3206 89.6564 93.1966V83.6967C89.651 82.57 89.9563 81.4637 90.5384 80.4998C91.1206 79.5358 91.957 78.7517 92.9556 78.2338V98.6437ZM134.079 39.1284C134.077 38.2513 134.334 37.3933 134.819 36.6629C135.303 35.9325 135.993 35.3626 136.801 35.0254C137.609 34.6881 138.499 34.5986 139.358 34.7683C140.216 34.938 141.005 35.3591 141.625 35.9785C142.245 36.5978 142.667 37.3875 142.839 38.2475C143.01 39.1076 142.923 39.9993 142.589 40.8098C142.255 41.6203 141.688 42.3132 140.96 42.8007C140.233 43.2883 139.377 43.5485 138.502 43.5485C137.331 43.5475 136.209 43.0818 135.38 42.2534C134.551 41.4251 134.084 40.3014 134.079 39.1284V39.1284ZM138.502 56.8088C144.355 56.8088 150.394 56.9628 156.464 57.263L154.813 62.327C153.461 66.4864 150.351 69.1724 146.886 69.1724H129.759C126.184 69.1724 122.944 66.2375 121.691 61.8688L120.37 57.2709C126.484 56.9668 132.589 56.8088 138.502 56.8088ZM93.2157 152.427C91.639 149.868 94.1617 136.11 104.41 128.308C103.748 134.309 105.068 140.708 107.213 146.4C100.662 150.721 95.9315 154.497 93.2157 152.427ZM162.408 148.335L162.475 148.375C156.468 161.355 145.112 171.826 138.502 171.826C131.994 171.826 120.642 161.556 114.529 148.375L114.599 148.335C112.026 143.737 108.979 133.293 111.489 125.982C129.032 131.786 147.972 131.786 165.514 125.982V125.982C168.183 133.748 164.517 144.547 162.408 148.335V148.335ZM183.792 152.427C181.084 154.501 176.338 150.713 169.795 146.4C171.939 140.708 173.256 134.309 172.598 128.308C182.578 135.904 185.491 149.658 183.792 152.427ZM178.392 105.07C178.396 108.032 177.5 110.924 175.825 113.363C174.149 115.802 171.772 117.672 169.011 118.726C159.297 122.584 148.951 124.593 138.502 124.651C130.037 124.625 121.627 123.293 113.567 120.701C108.265 118.998 106.026 118.129 103.776 116.225C102.154 114.858 100.851 113.151 99.9588 111.224C99.0667 109.297 98.6069 107.198 98.6119 105.074V72.3482C98.627 68.6581 100.028 65.109 102.536 62.4074C105.045 59.7057 108.476 58.0496 112.148 57.7686C113.417 57.6817 114.19 57.6422 114.584 57.6146L116.251 63.433C118.222 70.2587 123.638 74.8407 129.759 74.8407H146.886C152.846 74.8407 158.069 70.6181 160.193 64.0848L162.306 57.6067C163.619 57.6896 164.111 57.7133 164.852 57.7686C168.525 58.0486 171.957 59.7043 174.466 62.4061C176.975 65.1079 178.377 68.6575 178.392 72.3482V105.07ZM187.348 93.1966C187.35 94.3206 187.043 95.4236 186.461 96.3845C185.879 97.3453 185.045 98.127 184.048 98.6437V78.2338C185.045 78.7505 185.879 79.5321 186.461 80.493C187.043 81.4539 187.35 82.5569 187.348 83.6809V93.1966Z" fill="#5C2467"/>
<path d="M155.727 82.7526C152.487 82.7526 149.854 86.5921 149.854 91.3163C149.854 96.0406 152.487 99.88 155.727 99.88C158.967 99.88 161.6 96.0366 161.6 91.3163C161.6 86.596 158.963 82.7526 155.727 82.7526Z" fill="#5C2467"/>
<path d="M121.277 82.7526C118.041 82.7526 115.404 86.5921 115.404 91.3163C115.404 96.0406 118.041 99.88 121.277 99.88C124.513 99.88 127.15 96.0366 127.15 91.3163C127.15 86.596 124.517 82.7526 121.277 82.7526Z" fill="#5C2467"/>
<path d="M138.502 44.5716C141.467 44.5716 143.871 42.1629 143.871 39.1916C143.871 36.2203 141.467 33.8116 138.502 33.8116C135.537 33.8116 133.133 36.2203 133.133 39.1916C133.133 42.1629 135.537 44.5716 138.502 44.5716Z" fill="#E5D1E6"/>
<path d="M145.313 115.886H131.525V112.05H134.008V113.397H142.834V112.05H145.313V115.886Z" fill="#5C2467"/>
</g>
<g filter="url(#filter2_d)">
<path d="M176.114 250.584C174.866 250.584 173.81 251.664 173.81 252.984C173.81 254.232 174.866 255.288 176.114 255.288C177.434 255.288 178.514 254.232 178.514 252.984C178.514 251.664 177.434 250.584 176.114 250.584ZM187.406 238.392C183.686 238.392 180.758 240.6 180.758 243.576C180.758 247.2 185.054 248.112 187.502 248.688C189.014 249.048 190.382 249.408 190.382 250.44C190.382 251.136 189.734 251.88 187.982 251.88C184.742 251.88 184.43 249.288 184.43 249.288H180.518C180.518 251.832 182.654 255.288 187.766 255.288C191.582 255.288 194.318 253.344 194.318 250.224C194.318 246.624 190.694 245.76 188.126 245.088C185.822 244.488 184.742 244.176 184.742 243.384C184.742 242.448 186.182 241.92 187.358 241.92C189.038 241.92 189.998 243.024 189.998 243.84H193.91C193.91 241.296 191.654 238.392 187.406 238.392ZM212.271 238.68H208.311V245.016H201.135V238.68H197.199V255H201.135V248.664H208.311V255H212.271V238.68Z" fill="white"/>
</g>
</g>
<defs>
<filter id="filter0_d" x="64.4641" y="196.4" width="152.287" height="39.2" filterUnits="userSpaceOnUse" color-interpolation-filters="sRGB">
<feFlood flood-opacity="0" result="BackgroundImageFix"/>
<feColorMatrix in="SourceAlpha" type="matrix" values="0 0 0 0 0 0 0 0 0 0 0 0 0 0 0 0 0 0 127 0"/>
<feOffset dy="2"/>
<feGaussianBlur stdDeviation="1"/>
<feColorMatrix type="matrix" values="0 0 0 0 0 0 0 0 0 0 0 0 0 0 0 0 0 0 0.25 0"/>
<feBlend mode="normal" in2="BackgroundImageFix" result="effect1_dropShadow"/>
<feBlend mode="normal" in="SourceGraphic" in2="effect1_dropShadow" result="shape"/>
</filter>
<filter id="filter1_d" x="82" y="29" width="113" height="153" filterUnits="userSpaceOnUse" color-interpolation-filters="sRGB">
<feFlood flood-opacity="0" result="BackgroundImageFix"/>
<feColorMatrix in="SourceAlpha" type="matrix" values="0 0 0 0 0 0 0 0 0 0 0 0 0 0 0 0 0 0 127 0"/>
<feOffset dy="2"/>
<feGaussianBlur stdDeviation="1"/>
<feColorMatrix type="matrix" values="0 0 0 0 0 0 0 0 0 0 0 0 0 0 0 0 0 0 0.25 0"/>
<feBlend mode="normal" in2="BackgroundImageFix" result="effect1_dropShadow"/>
<feBlend mode="normal" in="SourceGraphic" in2="effect1_dropShadow" result="shape"/>
</filter>
<filter id="filter2_d" x="171.81" y="238.392" width="42.4606" height="20.896" filterUnits="userSpaceOnUse" color-interpolation-filters="sRGB">
<feFlood flood-opacity="0" result="BackgroundImageFix"/>
<feColorMatrix in="SourceAlpha" type="matrix" values="0 0 0 0 0 0 0 0 0 0 0 0 0 0 0 0 0 0 127 0"/>
<feOffset dy="2"/>
<feGaussianBlur stdDeviation="1"/>
<feColorMatrix type="matrix" values="0 0 0 0 0 0 0 0 0 0 0 0 0 0 0 0 0 0 0.25 0"/>
<feBlend mode="normal" in2="BackgroundImageFix" result="effect1_dropShadow"/>
<feBlend mode="normal" in="SourceGraphic" in2="effect1_dropShadow" result="shape"/>
</filter>
<clipPath id="clip0">
<rect width="284" height="284" fill="white"/>
</clipPath>
</defs>
</svg>
